<?xml version="1.0" encoding="UTF-8"?>
<svg version="1.1" xmlns="http://www.w3.org/2000/svg" width="1603" height="1002">
<path d="M0 0 C0.96583008 0.5460791 1.93166016 1.0921582 2.92675781 1.65478516 C5.75170681 3.25490157 8.56390987 4.87569913 11.375 6.5 C13.95409269 7.96589957 16.53898334 9.42135667 19.125 10.875 C19.76163574 11.23343994 20.39827148 11.59187988 21.05419922 11.96118164 C23.15923662 13.14420959 25.26665729 14.32287292 27.375 15.5 C28.15875 15.93844238 28.9425 16.37688477 29.75 16.82861328 C64.37434473 36.08708551 100.10621461 53.8079979 136.42327881 69.64752197 C138.43445414 70.52596854 140.44323936 71.40970896 142.45166016 72.29443359 C228.46095924 110.1286023 317.65781587 139.42649465 475.375 176.5 C476.79262634 176.78139832 476.79262634 176.78139832 478.2388916 177.06848145 C555.2073131 192.32696808 633.6021625 201.89973282 711.9992981 205.39285278 C713.67202643 205.46829499 715.34460405 205.54711665 717.01705933 205.62838745 C739.44298405 206.70198295 761.86632258 206.7012297 784.3125 206.6875 C785.2901683 206.68723312 786.26783661 206.68696625 787.27513123 206.68669128 C815.14156344 206.67714491 842.95435875 206.63430919 870.76519775 204.68035889 C873.57388253 204.48625557 876.38321746 204.30500433 879.19287109 204.12548828 C949.14986825 199.61253857 1018.64802139 190.26376655 1087.375 176.5 C1088.33563354 176.3081311 1089.29626709 176.11626221 1090.28601074 175.9185791 C1186.20134085 156.70971313 1280.14387929 128.34104096 1383.71875 86.44702148 C1384.35206238 86.18722 1384.98537476 85.92741852 1385.63787842 85.65974426 C1387.33110487 84.96418692 1389.02349557 84.26659603 1390.71582031 83.56884766 C1398.32840956 80.50899494 1407.54214804 80.08788205 1415.4765625 82.40625 C1422.11849077 85.53658477 1426.20468797 89.52324409 1429.25 96.25 C1431.31613996 102.43661335 1430.40561426 108.7210345 1427.8125 114.625 C1423.22819977 122.58221059 1415.79287967 127.93410047 1408.25 132.875 C1406.55248557 134.00907091 1404.85587553 135.14449665 1403.16015625 136.28125 C1402.33789551 136.83039063 1401.51563477 137.37953125 1400.66845703 137.9453125 C1397.61625113 140.01434031 1394.65701448 142.18885437 1391.6875 144.375 C1357.59165947 169.10648996 1319.12490272 188.99422164 1281.375 207.5 C1280.44333008 207.95955078 1279.51166016 208.41910156 1278.55175781 208.89257812 C1240.23860051 227.75406959 1200.73145535 243.56837625 1160.375 257.5 C1159.07102357 257.95445793 1157.76715268 258.40921882 1156.46337891 258.86425781 C1064.22756939 290.97946948 967.35431541 311.15331581 747.375 324.5 C746.66371948 324.49033203 745.95243896 324.48066406 745.21960449 324.47070312 C657.81454111 323.25329176 570.33855833 311.93522283 485.375 291.5 C484.58536865 291.31048767 483.7957373 291.12097534 482.98217773 290.92572021 C417.48655564 275.15682403 352.90810068 254.00343137 291.375 226.5 C290.10293651 225.93440852 288.83079869 225.36898418 287.55859375 224.80371094 C259.23232129 212.19791526 231.0524316 199.12353253 203.99707031 183.95361328 C201.20818289 182.40752057 198.40057113 180.90102661 195.5859375 179.40234375 C181.88511669 172.10089589 168.50935263 164.36380689 155.26513672 156.26416016 C152.68485982 154.68914065 150.09627641 153.12921173 147.50390625 151.57421875 C135.31788294 144.20776829 123.47471285 136.32889145 111.625 128.4375 C110.79973816 127.88855072 109.97447632 127.33960144 109.12420654 126.77401733 C94.3941323 116.96538252 79.84651346 106.9105851 65.625 96.375 C64.83262939 95.78936279 64.04025879 95.20372559 63.22387695 94.6003418 C56.54220089 89.64922052 49.930975 84.61645728 43.375 79.5 C42.80442871 79.0555957 42.23385742 78.61119141 41.64599609 78.15332031 C34.69916455 72.7390731 27.80672182 67.26765354 21.0078125 61.66796875 C19.25770474 60.22685627 17.50250388 58.79190597 15.7421875 57.36328125 C5.46666728 49.02003816 -4.59218498 40.42739727 -14.3828125 31.51953125 C-16.5157856 29.59836907 -18.68893285 27.73521941 -20.875 25.875 C-31.3296847 16.77751575 -31.3296847 16.77751575 -31.86328125 10.85546875 C-32.06237621 2.35725738 -32.06237621 2.35725738 -30.0625 -1.5625 C-19.84703243 -9.68248704 -10.35206578 -6.06177114 0 0 Z " fill="#FF9900" transform="translate(31.625,677.5)"/>
<path d="M0 0 C43.86948956 39.5123838 62.63853328 95.9058803 66.69238281 153.73413086 C67.10740185 162.6791519 67.11599538 171.63275993 67.12109375 180.5859375 C67.12176849 181.65151886 67.12244324 182.71710022 67.12313843 183.81497192 C67.07651018 230.27544191 59.09012815 276.31728365 36.87109375 317.5859375 C36.2575 318.75253906 35.64390625 319.91914063 35.01171875 321.12109375 C27.71430995 334.49465079 18.40356648 346.5963262 7.87109375 357.5859375 C6.66453125 358.88724609 6.66453125 358.88724609 5.43359375 360.21484375 C-6.32426749 372.51510632 -20.03996967 381.84393026 -35.12890625 389.5859375 C-35.74056641 389.90401367 -36.35222656 390.22208984 -36.98242188 390.54980469 C-78.2479041 411.75875554 -130.27735284 412.15535429 -173.94604492 398.4309082 C-197.25482298 390.70320011 -217.2837677 378.68865959 -236.35986328 363.40649414 C-237.25464386 362.68990128 -238.14942444 361.97330841 -239.07131958 361.23500061 C-239.75032318 360.69080978 -240.42932678 360.14661896 -241.12890625 359.5859375 C-241.12614087 360.60599947 -241.12337549 361.62606144 -241.12052631 362.67703438 C-241.05394825 387.48940286 -241.00463875 412.30175977 -240.97346973 437.11419868 C-240.95799627 449.11327411 -240.93689753 461.11229055 -240.90258789 473.11132812 C-240.87270029 483.5688353 -240.85333473 494.02629976 -240.84664077 504.48384845 C-240.84272744 510.02180892 -240.83352049 515.55964718 -240.81171608 521.09756851 C-240.79136112 526.30955927 -240.78507049 531.52137742 -240.78958321 536.73340416 C-240.78875757 538.64661153 -240.78278607 540.55982465 -240.77128983 542.47299767 C-240.75636124 545.08541084 -240.75995396 547.69717254 -240.7681427 550.30960083 C-240.75940418 551.06642249 -240.75066565 551.82324415 -240.74166232 552.60299981 C-240.78177043 557.33784321 -241.6420495 560.55717134 -244.12890625 564.5859375 C-248.20845673 568.28303012 -251.78323928 568.71459914 -257.1574707 568.76293945 C-258.39918533 568.77577469 -259.64089996 568.78860992 -260.92024231 568.80183411 C-262.27755331 568.81000206 -263.63486883 568.81744568 -264.9921875 568.82421875 C-265.67699881 568.82829428 -266.36181011 568.8323698 -267.06737328 568.83656883 C-270.69229198 568.85741002 -274.31717306 568.87171997 -277.94213867 568.88110352 C-281.67803301 568.89216246 -285.41333082 568.92656101 -289.14901447 568.96627522 C-292.0290179 568.99247273 -294.90887984 569.00079808 -297.78899193 569.00438499 C-299.16566177 569.00924313 -300.54232563 569.02083522 -301.91887856 569.03942299 C-315.23468495 569.20804848 -315.23468495 569.20804848 -320.12890625 564.5859375 C-323.51626271 560.84816485 -324.25294639 557.40632004 -324.25655675 552.45516557 C-324.25957272 551.633789 -324.26258869 550.81241243 -324.26569605 549.96614566 C-324.26392658 549.06738644 -324.26215711 548.16862722 -324.26033401 547.24263287 C-324.26238665 546.28111841 -324.26443928 545.31960396 -324.26655412 544.3289527 C-324.27224331 541.08213804 -324.2707645 537.83536554 -324.26934814 534.58854675 C-324.27193067 532.24719627 -324.27494352 529.90584624 -324.27835155 527.56449682 C-324.28558879 521.78858085 -324.28812481 516.01267597 -324.2886806 510.2367558 C-324.28959384 503.32011548 -324.29626015 496.40348373 -324.30302742 489.48684709 C-324.3190932 472.76955537 -324.32499115 456.05226456 -324.32977617 439.33496651 C-324.33211132 431.42877352 -324.33571386 423.52258126 -324.33947155 415.61638884 C-324.35230693 388.55962206 -324.36302664 361.50285569 -324.36647415 334.44608593 C-324.36669579 332.74739727 -324.36691757 331.04870861 -324.3671395 329.35001995 C-324.36736014 327.64720193 -324.36758063 325.94438391 -324.36780095 324.24156588 C-324.36824351 320.82535056 -324.36869062 317.40913524 -324.36914062 313.99291992 C-324.36925002 313.14589613 -324.36935941 312.29887234 -324.36947211 311.42618116 C-324.37310387 283.9528019 -324.38902847 256.47944901 -324.41233099 229.00607984 C-324.4369155 199.96824983 -324.45064633 170.93043489 -324.45184207 141.89259416 C-324.45201353 138.70629743 -324.45222896 135.52000071 -324.4524765 132.33370399 C-324.45253227 131.54913248 -324.45258804 130.76456097 -324.4526455 129.95621457 C-324.45379708 117.31951289 -324.46482808 104.68283824 -324.47936356 92.0461457 C-324.49371508 79.35007183 -324.49697314 66.65403269 -324.48892358 53.95795294 C-324.48485452 47.07719603 -324.48560493 40.19652224 -324.49998093 33.31577682 C-324.51265615 27.02099471 -324.51157865 20.72637276 -324.49939021 14.43159107 C-324.49742213 12.15030761 -324.5005625 9.86901304 -324.50923458 7.58774521 C-324.52025414 4.49388901 -324.5128905 1.40060536 -324.50084305 -1.69323444 C-324.50843824 -2.58497017 -324.51603343 -3.47670589 -324.52385879 -4.39546391 C-324.46915312 -10.87504941 -323.41929686 -15.69422366 -319.12890625 -20.7890625 C-315.92491596 -23.39230461 -313.18342974 -23.54434612 -309.2019043 -23.57519531 C-308.20043869 -23.58480286 -307.19897308 -23.5944104 -306.16716003 -23.60430908 C-305.08590347 -23.60855896 -304.00464691 -23.61280884 -302.890625 -23.6171875 C-301.22033989 -23.62573761 -301.22033989 -23.62573761 -299.51631165 -23.63446045 C-297.15842642 -23.64391159 -294.80052798 -23.65044488 -292.44262695 -23.65429688 C-288.84107317 -23.66399607 -285.24009155 -23.6950165 -281.63867188 -23.7265625 C-279.34765964 -23.73309328 -277.05664332 -23.73834346 -274.765625 -23.7421875 C-273.1528492 -23.7607077 -273.1528492 -23.7607077 -271.50749207 -23.77960205 C-264.73147876 -23.75948627 -260.00195741 -23.20502649 -254.94140625 -18.2890625 C-250.30593455 -10.93624531 -249.25055454 -2.30244584 -247.94140625 6.1484375 C-247.76416016 7.25251953 -247.58691406 8.35660156 -247.40429688 9.49414062 C-246.97242674 12.19041094 -246.54745805 14.8875734 -246.12890625 17.5859375 C-245.50628906 17.02648438 -244.88367188 16.46703125 -244.2421875 15.890625 C-178.47035047 -41.16667296 -74.21351166 -58.39619389 0 0 Z M-167.12890625 34.5859375 C-167.95567871 34.78461426 -168.78245117 34.98329102 -169.63427734 35.18798828 C-193.50648044 41.10177398 -223.31206881 51.76910006 -241.12890625 69.5859375 C-241.34450241 72.58803042 -241.43332149 75.49967629 -241.43670654 78.50430298 C-241.44547105 79.43958434 -241.45423556 80.37486571 -241.46326566 81.33848894 C-241.49010813 84.49210599 -241.50241406 87.64561119 -241.51464844 90.79931641 C-241.53044532 93.05261749 -241.5469829 95.30591349 -241.56420898 97.5592041 C-241.61671438 104.97692002 -241.64727303 112.39465888 -241.67578125 119.8125 C-241.6864984 122.36368195 -241.69725341 124.91486375 -241.70804596 127.46604538 C-241.75131512 138.07752094 -241.78909185 148.68899108 -241.81129074 159.30053139 C-241.81715014 162.05500938 -241.82307345 164.80948722 -241.82910156 167.56396484 C-241.83059366 168.24857675 -241.83208577 168.93318867 -241.83362308 169.63854639 C-241.85891839 180.72342183 -241.92534527 191.80765477 -242.00870523 202.89222999 C-242.09359674 214.27384661 -242.13987187 225.65501548 -242.15113187 237.03699052 C-242.15844425 243.42717906 -242.1825385 249.81627927 -242.24733734 256.20616531 C-242.30744363 262.21972447 -242.32014476 268.23153544 -242.29656982 274.24533081 C-242.29612784 276.45124194 -242.31278166 278.65723347 -242.3478775 280.86286545 C-242.95662457 292.34317455 -242.95662457 292.34317455 -238.93281746 302.64082623 C-236.40633912 304.70161189 -234.05648587 306.17426625 -231.12890625 307.5859375 C-230.11103027 308.27308838 -229.0931543 308.96023926 -228.04443359 309.66821289 C-226.76753662 310.41832642 -226.76753662 310.41832642 -225.46484375 311.18359375 C-224.49627441 311.75400391 -223.52770508 312.32441406 -222.52978516 312.91210938 C-221.53124512 313.48509766 -220.53270508 314.05808594 -219.50390625 314.6484375 C-217.92295166 315.56012695 -217.92295166 315.56012695 -216.31005859 316.49023438 C-208.12874955 321.14384594 -199.9451677 325.2914398 -191.12890625 328.5859375 C-190.43700195 328.84810059 -189.74509766 329.11026367 -189.03222656 329.38037109 C-154.49362168 342.2490617 -114.18935099 345.05062233 -79.99902344 329.625 C-69.49191119 324.57453897 -61.23688796 317.8891539 -53.12890625 309.5859375 C-52.46632813 308.93238281 -51.80375 308.27882813 -51.12109375 307.60546875 C-25.14340946 280.23828042 -18.09306314 235.51450662 -17.92578125 199.390625 C-17.91876694 198.3676683 -17.91175262 197.34471161 -17.90452576 196.29075623 C-17.88714657 193.01410453 -17.88067512 189.73763357 -17.87890625 186.4609375 C-17.87823151 185.34133636 -17.87755676 184.22173523 -17.87686157 183.06820679 C-17.89251981 166.72935071 -18.16532602 150.70235848 -21.12890625 134.5859375 C-21.31114746 133.58691406 -21.49338867 132.58789062 -21.68115234 131.55859375 C-26.01921403 108.56722922 -32.83057575 84.84332613 -48.12890625 66.5859375 C-49.17498047 65.31556641 -49.17498047 65.31556641 -50.2421875 64.01953125 C-65.6746376 46.06525982 -87.50913486 34.13027962 -111.23974609 31.78076172 C-129.6988503 30.53601225 -149.07964558 30.18338937 -167.12890625 34.5859375 Z " fill="#232F3E" transform="translate(531.12890625,36.4140625)"/>
<path d="M0 0 C42.83625352 -1.2605129 92.93753757 4.2220553 125.56445312 34.87158203 C126.32371094 35.59732422 127.08296875 36.32306641 127.86523438 37.07080078 C128.89583984 37.98925781 128.89583984 37.98925781 129.94726562 38.92626953 C152.55350543 59.83815606 159.10714114 93.73452403 160.86523438 123.07080078 C160.99248465 127.3481005 161.00488024 131.62125131 160.99894714 135.90023804 C161.0012127 137.1233052 161.00347826 138.34637237 161.00581247 139.60650218 C161.01100375 142.96130328 161.01180499 146.31605028 161.01061809 149.67085147 C161.01041238 153.30405981 161.01594864 156.93726043 161.02067566 160.57046509 C161.02894322 167.67042494 161.03172864 174.77037648 161.03228804 181.87034075 C161.03276461 187.6408528 161.03482637 193.41136213 161.03798866 199.18187332 C161.04678098 215.56019259 161.05140973 231.93850534 161.05065819 248.31682698 C161.05059825 249.63823005 161.05059825 249.63823005 161.05053711 250.98632812 C161.05049623 251.86834363 161.05045535 252.75035914 161.05041323 253.6591024 C161.05000612 267.97691433 161.05959559 282.29470006 161.07367548 296.61250441 C161.08803523 311.33136316 161.09494603 326.0502091 161.0940817 340.76907504 C161.09374982 349.02594591 161.0964937 357.28278922 161.10725975 365.53965378 C161.11635897 372.56263493 161.11854439 379.585576 161.11175033 386.60856049 C161.10848353 390.1902174 161.10843444 393.77179735 161.11710358 397.35344696 C161.1264064 401.23675549 161.12019757 405.11995139 161.11247253 409.00326538 C161.1176161 410.13351053 161.12275966 411.26375567 161.12805909 412.42825067 C161.09756958 419.34967042 161.05159129 425.17709311 156.74023438 430.88330078 C150.77896488 435.41904931 143.6437056 435.3795273 136.43164062 435.37158203 C135.55426743 435.37586716 134.67689423 435.38015228 133.77293396 435.38456726 C131.92830259 435.39027743 130.08364872 435.39083545 128.23901367 435.38647461 C125.43889468 435.38331338 122.63983266 435.40681966 119.83984375 435.43212891 C118.03711069 435.43440234 116.23437483 435.43510519 114.43164062 435.43408203 C113.60636368 435.44329178 112.78108673 435.45250153 111.93080139 435.46199036 C105.86361608 435.4144153 99.08262686 434.78507079 94.27003479 430.72505188 C90.1017238 425.9761938 88.69941066 421.01539363 87.79492188 414.89501953 C87.62089844 413.73808594 87.446875 412.58115234 87.26757812 411.38916016 C87.09355469 410.19097656 86.91953125 408.99279297 86.74023438 407.75830078 C86.46759766 405.93202148 86.46759766 405.93202148 86.18945312 404.06884766 C85.74260499 401.07026147 85.30140127 398.07095606 84.86523438 395.07080078 C80.90921967 395.07080078 80.06380324 396.36356926 77.11523438 398.94580078 C45.06288891 425.73270227 -0.17489813 445.01202889 -42.34179688 445.27392578 C-43.10064178 445.28094009 -43.85948669 445.28795441 -44.6413269 445.29518127 C-47.07670085 445.31258947 -49.51183175 445.31903339 -51.94726562 445.32080078 C-53.19438828 445.3218129 -53.19438828 445.3218129 -54.46670532 445.32284546 C-66.60596621 445.30716942 -78.28504523 444.93029477 -90.13476562 442.07080078 C-90.86002441 441.9098291 -91.5852832 441.74885742 -92.33251953 441.58300781 C-110.37283836 437.5242285 -126.76840625 429.71415448 -141.13476562 418.07080078 C-142.09769531 417.29091797 -143.060625 416.51103516 -144.05273438 415.70751953 C-166.34908058 396.49303782 -178.99695766 368.74704418 -181.95166016 339.70288086 C-184.50669302 302.9751351 -178.97579989 267.49692085 -154.52099609 238.65625 C-130.08113122 210.70406922 -96.51681346 195.59394931 -60.13476562 190.07080078 C-59.40596191 189.95510742 -58.6771582 189.83941406 -57.92626953 189.72021484 C-17.65598757 183.63589069 45.33847097 183.80741908 81.86523438 202.07080078 C81.77991638 194.29772545 81.68470452 186.52483499 81.57770729 178.75203133 C81.52828823 175.14071419 81.48196625 171.52941895 81.44335938 167.91796875 C81.92373283 123.83863813 81.92373283 123.83863813 62.01757812 85.96142578 C58.27867648 82.67716372 54.30283097 80.29610582 49.86523438 78.07080078 C48.57746094 77.40951172 48.57746094 77.40951172 47.26367188 76.73486328 C30.10646703 68.76038779 10.28494579 67.83569867 -8.32226562 67.82080078 C-9.08565247 67.82012604 -9.84903931 67.81945129 -10.63555908 67.8187561 C-49.86207147 67.87318791 -90.52753033 73.92002382 -127.75976562 86.50830078 C-134.34517259 88.72137711 -141.1810371 90.8526214 -148.13476562 89.07080078 C-151.44521396 86.46256876 -152.88121511 84.05209072 -154.13476562 80.07080078 C-154.33529352 77.26929236 -154.43891215 74.57042762 -154.43554688 71.77001953 C-154.439832 70.974814 -154.44411713 70.17960846 -154.4485321 69.36030579 C-154.45425959 67.6818639 -154.45478734 66.0033972 -154.45043945 64.32495117 C-154.44728863 61.77690488 -154.47072556 59.2300311 -154.49609375 56.68212891 C-154.49836805 55.04476056 -154.49906963 53.40738913 -154.49804688 51.77001953 C-154.50725662 51.01766525 -154.51646637 50.26531097 -154.5259552 49.49015808 C-154.46975333 42.9573382 -153.10088065 37.50094645 -148.90039062 32.30908203 C-145.7552749 29.76367057 -142.54083962 27.93447548 -138.88476562 26.25830078 C-138.15370605 25.92137207 -137.42264648 25.58444336 -136.66943359 25.23730469 C-94.56798895 6.53229622 -45.59264602 1.51210743 0 0 Z M-84.72851562 271.26611328 C-98.11028006 286.86368936 -100.21202601 307.23994296 -99.13476562 327.07080078 C-97.77846625 340.71268443 -93.24232304 352.80988456 -84.13476562 363.07080078 C-83.6475 363.67408203 -83.16023437 364.27736328 -82.65820312 364.89892578 C-72.51178937 376.4502276 -56.035336 381.24891083 -41.20068359 382.2734375 C1.85520445 384.1784453 43.42558997 368.33507524 77.86523438 343.07080078 C78.93871124 342.50585152 78.93871124 342.50585152 80.03387451 341.92948914 C82.40121072 339.52682632 82.33751626 337.65056011 82.36291504 334.36679077 C82.34853394 333.59211456 82.33415283 332.81743835 82.31933594 332.01928711 C82.31992004 331.1995491 82.32050415 330.3798111 82.32110596 329.53523254 C82.3183178 326.82400253 82.28719206 324.11387011 82.25585938 321.40283203 C82.24839957 319.52382508 82.24270541 317.64481035 82.2387085 315.76579285 C82.22343164 310.81884299 82.18413218 305.87236248 82.13989258 300.92559814 C82.09898408 295.87836049 82.08070694 290.83104704 82.06054688 285.78369141 C82.0176399 275.87918826 81.94936377 265.97503354 81.86523438 256.07080078 C63.61928939 251.95613439 63.61928939 251.95613439 45.17773438 248.88330078 C44.02692383 248.72313477 42.87611328 248.56296875 41.69042969 248.39794922 C0.75540035 242.94956228 -53.54504479 238.20088127 -84.72851562 271.26611328 Z " fill="#232F3E" transform="translate(837.134765625,-0.07080078125)"/>
<path d="M0 0 C0.65243683 -0.00511093 1.30487366 -0.01022186 1.9770813 -0.01548767 C4.13487926 -0.02939097 6.29235786 -0.02842569 8.45019531 -0.02612305 C9.95371621 -0.03001107 11.45723601 -0.03434596 12.96075439 -0.03910828 C16.11482295 -0.04657314 19.2687796 -0.0462784 22.42285156 -0.04101562 C26.45226047 -0.03523644 30.4812074 -0.05211266 34.51054001 -0.0753603 C37.61792655 -0.09014409 40.72520323 -0.09096278 43.83261871 -0.08785057 C45.31728273 -0.08836198 46.80195318 -0.09356566 48.28658295 -0.10366249 C50.3710408 -0.11609318 52.45461721 -0.10919565 54.5390625 -0.09765625 C55.7224823 -0.09828568 56.9059021 -0.0989151 58.12518311 -0.0995636 C63.20826491 0.45939125 67.05105261 2.1491209 71.15332031 5.2746582 C77.07834171 12.75889576 79.88751653 22.64222489 83.05566406 31.5480957 C83.47674942 32.71970245 83.89783478 33.8913092 84.3316803 35.09841919 C85.23923185 37.62544259 86.1451207 40.15298577 87.0480957 42.68164062 C88.49586035 46.73579585 89.95009736 50.78761142 91.40527344 54.83911133 C93.18398178 59.79260862 94.96124789 64.74661841 96.73659706 69.70132065 C99.84573231 78.37790781 102.96623097 87.05034669 106.09472656 95.7199707 C106.31962202 96.34321102 106.54451748 96.96645134 106.77622795 97.60857773 C107.90745609 100.74328615 109.03890364 103.87791527 110.17044067 107.01251221 C112.22794586 112.71304314 114.28384258 118.41415386 116.33975029 124.11526108 C117.48586372 127.29342107 118.63209805 130.47153746 119.77832031 133.6496582 C120.23665423 134.92049133 120.69498756 136.19132466 121.15332031 137.4621582 C121.38019531 138.0912207 121.60707031 138.7202832 121.84082031 139.3684082 C123.90332017 145.08715782 123.90332017 145.08715782 124.59082222 146.99341393 C125.04914883 148.26422832 125.5074758 149.53504258 125.96580315 150.8058567 C127.11174242 153.98322874 128.25767529 157.16060308 129.40359497 160.33798218 C131.46482302 166.05328727 133.52609551 171.76857631 135.58761024 177.483778 C136.7319414 180.65624737 137.87623461 183.82873043 139.02050781 187.0012207 C139.24713985 187.62955433 139.4737719 188.25788795 139.70727158 188.90526199 C142.94055854 197.86973409 146.1716936 206.83497957 149.40156174 215.80068398 C160.99538111 247.98250569 172.64140685 280.14477936 184.34765625 312.28588867 C187.74487436 321.61414571 191.13654434 330.9444213 194.52832031 340.2746582 C198.7691814 330.71996172 202.13037872 320.92898939 205.45672607 311.0284729 C207.10641409 306.120308 208.77111387 301.21723287 210.43457031 296.3137207 C210.77587982 295.30672623 211.11718933 294.29973175 211.46884155 293.26222229 C214.88927539 283.18361833 218.38743654 273.13279122 221.90332031 263.0871582 C223.15084131 259.52079573 224.3981922 255.95437377 225.64550781 252.38793945 C225.95942474 251.49056564 226.27334167 250.59319183 226.59677124 249.66862488 C230.42793754 238.71113916 234.22702247 227.74253251 238.02832031 216.7746582 C243.64886416 200.56064895 249.28658729 184.35277619 254.94430542 168.15170288 C259.64758624 154.68245625 264.33039395 141.20621209 269.00271606 127.72619629 C275.9097571 107.80028854 282.82227555 87.87637766 289.8203125 67.98220825 C291.42091625 63.43127551 293.01671109 58.87871692 294.60644531 54.32397461 C296.40763288 49.1639587 298.21721209 44.00694906 300.0319519 38.85168457 C300.72922538 36.8665944 301.42373565 34.88053115 302.11526489 32.89343262 C303.07992771 30.12321878 304.05490127 27.35683213 305.03222656 24.59106445 C305.45175598 23.37493217 305.45175598 23.37493217 305.87976074 22.13423157 C308.36936622 15.14671761 311.45133284 6.87843659 317.52832031 2.2746582 C321.83433914 0.56625513 325.47920474 0.01188334 330.09692383 -0.03173828 C331.38168106 -0.04772568 332.66643829 -0.06371307 333.99012756 -0.08018494 C335.3791565 -0.0865602 336.76819023 -0.09195339 338.15722656 -0.09643555 C339.59398996 -0.10541129 341.03075245 -0.1145333 342.46751404 -0.12379456 C345.47079738 -0.1402357 348.47396983 -0.14797645 351.47729492 -0.15087891 C355.31987454 -0.15627607 359.16140959 -0.19402986 363.00369358 -0.23962307 C365.96774595 -0.2693958 368.93154589 -0.27660239 371.89573479 -0.27760506 C373.31231438 -0.28180243 374.72889506 -0.29421762 376.14532661 -0.3151226 C378.12640777 -0.3420499 380.10786946 -0.33410263 382.08911133 -0.32470703 C383.77738792 -0.332313 383.77738792 -0.332313 385.49977112 -0.34007263 C389.48019696 0.46786884 390.97923959 2.19108959 393.52832031 5.2746582 C395.52543664 11.10980815 392.97802728 17.5496825 391.07910156 23.13012695 C390.68525269 24.2970961 390.68525269 24.2970961 390.28344727 25.48764038 C386.96510466 35.14090405 383.15868982 44.604404 379.36062622 54.0765686 C377.50483932 58.70534501 375.66064494 63.33871513 373.81568909 67.97181702 C372.84603494 70.40671043 371.87584552 72.84139074 370.90513611 75.27586365 C365.75564012 88.19542108 360.67000368 101.13983242 355.59082031 114.0871582 C354.67159505 116.42913573 353.75232403 118.77109529 352.83300781 121.11303711 C350.98648984 125.81733611 349.14034784 130.52178243 347.29443359 135.22631836 C343.16698341 145.74471788 339.03445678 156.26112306 334.90231323 166.77767944 C332.61077436 172.60992402 330.31956396 178.44229764 328.02832031 184.2746582 C327.11165522 186.60799215 326.19498855 188.94132549 325.27832031 191.2746582 C324.59769531 193.0071582 324.59769531 193.0071582 323.90332031 194.7746582 C253.77832031 373.27465821 253.77832031 373.27465821 252.4034729 376.77426147 C251.48629005 379.10891427 250.56911477 381.44357003 249.65194702 383.77822876 C247.3682397 389.59139864 245.08440342 395.4045178 242.80029297 401.2175293 C237.60249917 414.44628105 232.4084118 427.67648017 227.21768188 440.90800476 C223.51859747 450.33560434 219.81268389 459.760504 216.10263062 469.18379211 C213.96868226 474.60559761 211.84154467 480.02990546 209.72766113 485.45956421 C197.46022139 516.946992 183.88915386 546.43748945 160.52832031 571.2746582 C159.97917969 571.88825195 159.43003906 572.5018457 158.86425781 573.1340332 C141.07698331 592.23563833 113.30840204 601.29100482 87.79833984 602.44311523 C70.87731498 602.98784302 54.17878581 602.60000081 37.52832031 599.2746582 C35.75328125 598.94981445 35.75328125 598.94981445 33.94238281 598.6184082 C26.6034683 597.06559002 18.78392363 594.52335006 14.05566406 588.3527832 C9.5317008 579.98588341 10.31542912 570.13975044 10.27832031 560.8996582 C10.25769531 559.62348633 10.23707031 558.34731445 10.21582031 557.0324707 C10.18716727 550.09843483 10.22988108 543.53873249 13.52832031 537.2746582 C16.8790632 533.92391532 19.54474692 533.0402086 24.15332031 532.8996582 C27.81788894 533.07572607 31.28260161 533.57088389 34.87988281 534.2746582 C42.33232004 535.54245279 49.7416033 535.6725262 57.27832031 535.6496582 C57.98486755 535.64878204 58.69141479 535.64790588 59.41937256 535.64700317 C78.61093744 535.56847172 96.88392174 531.87800297 111.17285156 517.9387207 C127.58366933 499.3778953 135.93538904 474.52643204 144.15332031 451.5871582 C144.96089556 449.36478262 145.76948608 447.14277571 146.57910156 444.92114258 C148.03761422 440.90347145 149.49529751 436.88554953 150.93701172 432.86181641 C151.22138092 432.06959183 151.50575012 431.27736725 151.79873657 430.46113586 C153.75528568 424.59758563 152.78147297 421.58830282 150.35644531 415.91137695 C150.00731583 415.06860199 149.65818634 414.22582703 149.29847717 413.35751343 C148.53658916 411.52201477 147.76952097 409.68865989 146.99795532 407.85720825 C145.76147283 404.9221673 144.53799217 401.98201744 143.31811523 399.04003906 C142.03529291 395.94637613 140.75174765 392.85303947 139.46427917 389.76130676 C135.24913663 379.6352433 131.13237493 369.47052097 127.03344727 359.29696655 C125.04624889 354.36522631 123.05449006 349.43532788 121.06347656 344.50512695 C120.48552841 343.07342918 120.48552841 343.07342918 119.89590454 341.61280823 C116.19877762 332.4548807 112.49028139 323.30158132 108.77832031 314.1496582 C108.32448471 313.03060593 108.32448471 313.03060593 107.86148071 311.88894653 C106.35408478 308.17208192 104.84653003 304.45528175 103.33886719 300.73852539 C100.54817004 293.85850856 97.75909301 286.97783489 94.96984863 280.097229 C93.40606793 276.23968024 91.84218931 272.38217117 90.27832031 268.5246582 C89.65331984 266.98299173 89.02831984 265.44132506 88.40332031 263.8996582 C88.09394531 263.1365332 87.78457031 262.3734082 87.46582031 261.5871582 C76.52832031 234.60799154 65.59082031 207.62882487 54.65332031 180.6496582 C54.18920494 179.5048423 54.18920494 179.5048423 53.7157135 178.3368988 C53.09106576 176.79609833 52.4664218 175.25529633 51.84178162 173.7144928 C50.27392308 169.84706073 48.70599779 165.97965575 47.13793945 162.11230469 C44.38933389 155.33315718 41.64103345 148.55388791 38.89549255 141.77349854 C37.41928518 138.12790995 35.94262505 134.48250484 34.46582031 130.8371582 C34.16805695 130.10209045 33.87029358 129.36702271 33.56350708 128.60968018 C29.45020552 118.45753271 25.32227547 108.31141552 21.18457031 98.16918945 C3.7009662 55.3136986 3.7009662 55.3136986 -2.82467651 39.06890869 C-3.41410201 37.60241372 -4.00466434 36.13637506 -4.59646606 34.6708374 C-5.39694201 32.68730831 -6.19283466 30.70200535 -6.98730469 28.71606445 C-7.42333008 27.63010986 -7.85935547 26.54415527 -8.30859375 25.42529297 C-10.10761931 20.55198801 -11.75926366 15.82072676 -11.72167969 10.5871582 C-11.72683594 9.86141602 -11.73199219 9.13567383 -11.73730469 8.38793945 C-11.42837176 5.9301054 -10.79299652 4.36674319 -9.47167969 2.2746582 C-5.88161575 -0.11871776 -4.26707272 0.01665773 0 0 Z " fill="#232F3E" transform="translate(1062.4716796875,12.725341796875)"/>
<path d="M0 0 C1.59837204 -0.00101212 1.59837204 -0.00101212 3.22903442 -0.00204468 C84.10018581 0.07911851 84.10018581 0.07911851 108.375 22.4375 C125.15102379 51.47292579 110.21078077 102.21234148 102.33203125 131.93359375 C96.45514425 153.67256435 88.61127313 174.89174307 79 195.25 C78.34281982 196.64484619 78.34281982 196.64484619 77.67236328 198.06787109 C62.88908406 229.14097186 43.61773801 256.4781567 19.5 281 C18.80011963 281.72131104 18.10023926 282.44262207 17.37915039 283.18579102 C11.17983817 289.42406086 3.28248473 297.02286597 -6.00390625 297.3125 C-9.56128548 297.10285703 -11.71473699 296.47821041 -14.5 294.25 C-16.83072003 289.58855995 -16.71516587 284.96582249 -15.39154053 279.93939209 C-14.51971327 277.48334274 -13.55950555 275.08437878 -12.5546875 272.6796875 C-12.19307526 271.77740417 -11.83146301 270.87512085 -11.45889282 269.94549561 C-10.68138373 268.00838653 -9.89727691 266.07391482 -9.10717773 264.14190674 C-7.00253386 258.98882362 -4.95347473 253.81364456 -2.8984375 248.640625 C-2.48144592 247.59423859 -2.06445435 246.54785217 -1.63482666 245.46975708 C32.80748425 167.42066307 32.80748425 167.42066307 34.21875 85.95703125 C30.91973742 78.37783424 25.49081142 74.65073637 18 71.5625 C-31.85917125 53.92524214 -96.07218254 65.30629294 -147.06933594 71.26806641 C-179.2750856 74.99264797 -179.2750856 74.99264797 -184.85131836 71.42651367 C-187 69.25 -187 69.25 -188.0625 66 C-187.96573174 60.1939046 -186.08480382 56.60065129 -182.25390625 52.28125 C-175.68444658 46.02225629 -167.85505005 41.66490983 -160 37.25 C-159.36094727 36.88261719 -158.72189453 36.51523437 -158.06347656 36.13671875 C-121.02706547 14.93023551 -78.14252822 5.35283635 -36 1.25 C-34.63536621 1.10860596 -34.63536621 1.10860596 -33.24316406 0.96435547 C-22.18628549 -0.04656948 -11.09375147 0.00631732 0 0 Z " fill="#FF9900" transform="translate(1489,639.75)"/>
</svg>
