<?xml version="1.0" encoding="UTF-8"?>
<svg version="1.1" xmlns="http://www.w3.org/2000/svg" width="2560" height="1220">
<path d="M0 0 C1.11938965 0.16628906 2.2387793 0.33257812 3.39208984 0.50390625 C39.70134085 5.98301636 74.54844851 17.01968046 108 32 C108.98887207 32.44214844 109.97774414 32.88429687 110.99658203 33.33984375 C141.46333954 47.10528337 169.88396395 65.16692325 196 86 C197.010625 86.79792969 198.02125 87.59585938 199.0625 88.41796875 C205.98900046 93.97687892 212.51195375 99.94222558 219 106 C213.64575833 112.48935311 207.75698595 118.41247076 201.82568359 124.3671875 C200.69812483 125.50266098 199.5707442 126.63831137 198.44352722 127.77412415 C194.76554988 131.47812339 191.08229271 135.17684798 187.3984375 138.875 C186.12747175 140.15133016 184.85651256 141.42766687 183.58555984 142.70401001 C178.30324561 148.00790741 173.0195115 153.3103835 167.73204613 158.60914612 C160.16125276 166.19622705 152.59911566 173.79171007 145.04861009 181.398983 C139.73149976 186.75470486 134.40492223 192.10089119 129.07112181 197.439991 C125.88685612 200.62791689 122.70694467 203.81992463 119.53705978 207.02215576 C116.56178531 210.02736251 113.57502118 213.02064007 110.57883644 216.00499535 C109.47957767 217.10403226 108.3846184 218.20738829 107.29424477 219.31524086 C105.80955585 220.82243359 104.31041579 222.31355478 102.80648804 223.80151367 C101.96991858 224.64139328 101.13334911 225.48127289 100.27142906 226.34660339 C98 228 98 228 95.81897926 227.86079407 C93.39346879 226.71297173 91.85480203 225.19500526 89.9375 223.3125 C76.781027 211.17845086 61.79275051 201.33845032 46 193 C45.12923828 192.53996582 44.25847656 192.07993164 43.36132812 191.60595703 C16.3973517 177.58681854 -12.76086921 169.03449854 -43 166 C-44.09441406 165.88914062 -45.18882812 165.77828125 -46.31640625 165.6640625 C-108.92856203 160.29523338 -171.43402326 180.41367 -220 220 C-222.62464208 222.27419271 -225.20227261 224.58573807 -227.75390625 226.94140625 C-229.70954276 228.73378962 -231.71044258 230.43039944 -233.75 232.125 C-249.06910451 245.52146387 -261.08214862 261.96496027 -272 279 C-272.3801123 279.58442871 -272.76022461 280.16885742 -273.15185547 280.77099609 C-285.01600466 299.12053703 -292.54746571 319.21944638 -299 340 C-300.65 339.67 -302.3 339.34 -304 339 C-304.26941406 340.25039063 -304.53882813 341.50078125 -304.81640625 342.7890625 C-305.6104586 346.36613916 -306.47818259 349.91530368 -307.40234375 353.4609375 C-312.08551289 371.44715355 -316.08767871 389.71234691 -316.203125 408.3828125 C-316.21018463 409.15122971 -316.21724426 409.91964691 -316.22451782 410.71134949 C-316.34467357 427.65405678 -316.30232084 444.31347833 -313 461 C-312.81195801 461.95986816 -312.62391602 462.91973633 -312.43017578 463.90869141 C-305.20308987 499.43467695 -291.40227848 536.42803457 -270 566 C-269.56461914 566.60376465 -269.12923828 567.2075293 -268.68066406 567.82958984 C-254.10675555 587.93998316 -237.82681127 606.87640652 -217.76074219 621.69677734 C-215.93446668 623.04850483 -214.12708921 624.42312589 -212.3203125 625.80078125 C-203.89235856 632.17147482 -195.19420587 637.80378172 -186 643 C-185.36964844 643.36303223 -184.73929687 643.72606445 -184.08984375 644.10009766 C-156.99310972 659.61229363 -126.83877922 668.76339144 -96 673 C-94.91513306 673.1546875 -94.91513306 673.1546875 -93.80834961 673.3125 C-84.7405973 674.41652028 -75.55768386 674.2439507 -66.4375 674.25 C-65.06732224 674.25101212 -65.06732224 674.25101212 -63.66946411 674.25204468 C-48.91932274 674.23477115 -34.55791297 673.53556669 -20 671 C-19.05092773 670.8443457 -18.10185547 670.68869141 -17.12402344 670.52832031 C36.90815094 661.45352334 91.60003145 633.65952864 124.13110352 588.58642578 C128.38438151 582.5660443 132.31286932 576.38391634 136 570 C136.64453125 568.89914062 137.2890625 567.79828125 137.953125 566.6640625 C147.85155296 549.26431047 153.93410666 530.38600256 158.47851562 510.97338867 C159 509 159 509 160 507 C85.09 507 10.18 507 -67 507 C-67 452.88 -67 398.76 -67 343 C65.33 343 197.66 343 334 343 C340.23010963 392.84087701 343.36671411 442.97315568 337 493 C336.91514343 493.66849976 336.83028687 494.33699951 336.74285889 495.02575684 C330.48568722 543.7610902 316.59226237 590.86799169 295 635 C294.58282715 635.8549707 294.1656543 636.70994141 293.73583984 637.59082031 C283.96187045 657.39481069 272.11625221 676.12118215 258.31298828 693.35351562 C256.65120191 695.43739203 255.04655606 697.56277055 253.4375 699.6875 C240.68440679 715.96406395 226.58274887 731.4012616 211 745 C210.49823242 745.44118164 209.99646484 745.88236328 209.47949219 746.33691406 C137.03638711 809.8330446 41.41196924 840.82330108 -54 843 C-54.83208984 843.02191406 -55.66417969 843.04382813 -56.52148438 843.06640625 C-119.77347628 844.53396987 -184.23693808 832.23833422 -241.55078125 805.15039062 C-244.04497076 803.97887737 -246.5519925 802.83919693 -249.0625 801.703125 C-280.82872165 787.16726244 -310.94713447 767.50055365 -337.24072266 744.48828125 C-338.56205506 743.37048465 -339.91033346 742.28441644 -341.27099609 741.21484375 C-349.25549644 734.89965447 -356.41097949 727.89452652 -363.58007812 720.68066406 C-365.62150377 718.62851459 -367.67341139 716.58728579 -369.7265625 714.546875 C-376.94769513 707.33300632 -383.68600574 700.02816187 -390 692 C-390.93411922 690.89761198 -391.87553435 689.8013101 -392.828125 688.71484375 C-407.7501069 671.6027 -420.48770209 652.45512149 -431.91308594 632.86083984 C-432.61728096 631.65523012 -433.32599169 630.45224213 -434.04003906 629.25244141 C-467.5503989 572.88833379 -489.27355087 504.16832922 -489.3359375 438.3671875 C-489.34240212 436.71696877 -489.3491328 435.06675107 -489.35610962 433.41653442 C-489.36797716 429.97606771 -489.37180207 426.53570052 -489.37060547 423.09521484 C-489.37044407 419.6399211 -489.38416638 416.18516409 -489.41162109 412.72998047 C-489.92490729 347.08692611 -473.49660101 285.9468697 -445 227 C-443.02 227 -441.04 227 -439 227 C-438.773125 226.20980469 -438.54625 225.41960937 -438.3125 224.60546875 C-433.13996961 210.39640462 -424.18186513 197.39205191 -415.8125 184.875 C-415.4414917 184.31890045 -415.0704834 183.7628009 -414.68823242 183.18984985 C-398.35512471 158.79084833 -379.44003678 136.41613993 -358.75 115.625 C-358.10071533 114.97104248 -357.45143066 114.31708496 -356.7824707 113.64331055 C-352.35171899 109.22718363 -347.74506484 105.07448541 -343 101 C-342.03578125 100.154375 -341.0715625 99.30875 -340.078125 98.4375 C-262.03606836 31.17473295 -162.71489097 -2.88520982 0 0 Z " fill="#34A853" transform="translate(489,137)"/>
<path d="M0 0 C1.11938965 0.16628906 2.2387793 0.33257812 3.39208984 0.50390625 C39.70134085 5.98301636 74.54844851 17.01968046 108 32 C108.98887207 32.44214844 109.97774414 32.88429687 110.99658203 33.33984375 C141.46333954 47.10528337 169.88396395 65.16692325 196 86 C197.010625 86.79792969 198.02125 87.59585938 199.0625 88.41796875 C205.98900046 93.97687892 212.51195375 99.94222558 219 106 C213.64575833 112.48935311 207.75698595 118.41247076 201.82568359 124.3671875 C200.69812483 125.50266098 199.5707442 126.63831137 198.44352722 127.77412415 C194.76554988 131.47812339 191.08229271 135.17684798 187.3984375 138.875 C186.12747175 140.15133016 184.85651256 141.42766687 183.58555984 142.70401001 C178.30324561 148.00790741 173.0195115 153.3103835 167.73204613 158.60914612 C160.16125276 166.19622705 152.59911566 173.79171007 145.04861009 181.398983 C139.73149976 186.75470486 134.40492223 192.10089119 129.07112181 197.439991 C125.88685612 200.62791689 122.70694467 203.81992463 119.53705978 207.02215576 C116.56178531 210.02736251 113.57502118 213.02064007 110.57883644 216.00499535 C109.47957767 217.10403226 108.3846184 218.20738829 107.29424477 219.31524086 C105.80955585 220.82243359 104.31041579 222.31355478 102.80648804 223.80151367 C101.96991858 224.64139328 101.13334911 225.48127289 100.27142906 226.34660339 C98 228 98 228 95.81897926 227.86079407 C93.39346879 226.71297173 91.85480203 225.19500526 89.9375 223.3125 C76.781027 211.17845086 61.79275051 201.33845032 46 193 C45.12923828 192.53996582 44.25847656 192.07993164 43.36132812 191.60595703 C16.3973517 177.58681854 -12.76086921 169.03449854 -43 166 C-44.09441406 165.88914062 -45.18882812 165.77828125 -46.31640625 165.6640625 C-108.92856203 160.29523338 -171.43402326 180.41367 -220 220 C-222.62464208 222.27419271 -225.20227261 224.58573807 -227.75390625 226.94140625 C-229.70954276 228.73378962 -231.71044258 230.43039944 -233.75 232.125 C-249.06910451 245.52146387 -261.08214862 261.96496027 -272 279 C-272.3801123 279.58442871 -272.76022461 280.16885742 -273.15185547 280.77099609 C-285.01600466 299.12053703 -292.54746571 319.21944638 -299 340 C-300.65 339.67 -302.3 339.34 -304 339 C-304.26941406 340.25039063 -304.53882813 341.50078125 -304.81640625 342.7890625 C-305.6104586 346.36613916 -306.47818259 349.91530368 -307.40234375 353.4609375 C-312.08551289 371.44715355 -316.08767871 389.71234691 -316.203125 408.3828125 C-316.21018463 409.15122971 -316.21724426 409.91964691 -316.22451782 410.71134949 C-316.43195635 439.96147159 -313.79621766 467.7773756 -303.66967773 495.49731445 C-303 498 -303 498 -304 501 C-305.88407749 502.61450036 -307.75660573 504.09539841 -309.75 505.5625 C-310.94933829 506.46468486 -312.14855387 507.36703287 -313.34765625 508.26953125 C-313.96012207 508.72666504 -314.57258789 509.18379883 -315.20361328 509.65478516 C-317.88391843 511.66191772 -320.53529265 513.70594211 -323.1875 515.75 C-323.70989258 516.15162354 -324.23228516 516.55324707 -324.77050781 516.96704102 C-329.5277447 520.6266167 -334.26419993 524.31274943 -339 528 C-346.31285424 533.69372134 -353.64770031 539.35732018 -361 545 C-363.16710847 546.66609253 -365.33357339 548.33302098 -367.5 550 C-370.69018605 552.45472115 -373.88096517 554.90864417 -377.07421875 557.359375 C-384.18670418 562.8209071 -391.27106606 568.31762131 -398.34643555 573.82714844 C-403.74086387 578.0259192 -409.15265588 582.20076669 -414.578125 586.359375 C-417.22614237 588.39557608 -419.85693775 590.45294336 -422.484375 592.515625 C-423.27263672 593.13308594 -424.06089844 593.75054688 -424.87304688 594.38671875 C-426.40772291 595.58974335 -427.94042318 596.79529465 -429.47070312 598.00390625 C-434.48667225 601.93180286 -439.65202544 605.53843622 -445 609 C-471.17049394 556.7641145 -489.28015149 497.20645157 -489.3359375 438.3671875 C-489.34240212 436.71696877 -489.3491328 435.06675107 -489.35610962 433.41653442 C-489.36797716 429.97606771 -489.37180207 426.53570052 -489.37060547 423.09521484 C-489.37044407 419.6399211 -489.38416638 416.18516409 -489.41162109 412.72998047 C-489.92490729 347.08692611 -473.49660101 285.9468697 -445 227 C-443.02 227 -441.04 227 -439 227 C-438.773125 226.20980469 -438.54625 225.41960937 -438.3125 224.60546875 C-433.13996961 210.39640462 -424.18186513 197.39205191 -415.8125 184.875 C-415.4414917 184.31890045 -415.0704834 183.7628009 -414.68823242 183.18984985 C-398.35512471 158.79084833 -379.44003678 136.41613993 -358.75 115.625 C-358.10071533 114.97104248 -357.45143066 114.31708496 -356.7824707 113.64331055 C-352.35171899 109.22718363 -347.74506484 105.07448541 -343 101 C-342.03578125 100.154375 -341.0715625 99.30875 -340.078125 98.4375 C-262.03606836 31.17473295 -162.71489097 -2.88520982 0 0 Z " fill="#EA4334" transform="translate(489,137)"/>
<path d="M0 0 C285.54754075 0 285.54754075 0 309.25 6.25 C311.0131958 6.70451538 311.0131958 6.70451538 312.81201172 7.16821289 C322.81192759 9.81484726 332.4488546 13.04065494 342 17 C342.73831055 17.29986816 343.47662109 17.59973633 344.23730469 17.90869141 C371.67593638 29.14438923 395.48753134 46.10643528 417.0546875 66.27734375 C419.27134562 68.34347076 421.53444636 70.32402873 423.875 72.25 C438.41915067 84.50587096 449.17430511 102.42401002 458 119 C458.33193359 119.61456055 458.66386719 120.22912109 459.00585938 120.86230469 C469.47699483 140.56545403 475.3941295 163.09693519 479 185 C479.19480957 186.16378174 479.19480957 186.16378174 479.39355469 187.35107422 C487.86044519 240.9628557 475.53241301 299.43243266 444.30078125 343.84375 C438.97756987 351.14621994 433.25097648 357.95237762 427.15625 364.62109375 C425.20384564 366.77510509 423.31722641 368.97027726 421.4375 371.1875 C418.54195629 374.50905474 415.4318592 377.39438718 412.0703125 380.23828125 C409.99515564 382.00412228 408.00304243 383.84058825 406 385.6875 C375.48638102 412.66632155 337.24085473 430.38742405 297.4375 438.25 C296.68476807 438.40114258 295.93203613 438.55228516 295.15649414 438.70800781 C278.98277615 441.68812929 262.67923888 442.30940453 246.27734375 442.18359375 C244.32551735 442.1757333 242.37368922 442.16829299 240.42185974 442.16123962 C219.15100814 442.06052878 197.88533604 441.61504078 176.62036133 441.13116455 C172.51090434 441.03888633 168.40134758 440.95160338 164.29177952 440.86443424 C160.21160986 440.77760262 156.13148615 440.68875071 152.05137444 440.59924126 C150.16428294 440.55786039 148.27718442 440.51679773 146.39007759 440.4761219 C129.92057301 440.11782925 113.46629808 439.5488766 97 439 C97 537.01 97 635.02 97 736 C64.99 736 32.98 736 0 736 C0 493.12 0 250.24 0 0 Z M97 90 C97 174.15 97 258.3 97 345 C125.17375 345.061875 153.3475 345.12375 182.375 345.1875 C191.24294434 345.21481201 200.11088867 345.24212402 209.24755859 345.27026367 C217.25593393 345.28030224 217.25593393 345.28030224 225.26431274 345.28633118 C228.80774673 345.28910545 232.35104336 345.3002644 235.8944397 345.31672668 C240.43605634 345.33754201 244.97747771 345.34343019 249.51913762 345.33921683 C251.17229475 345.34009583 252.82545981 345.34590229 254.47857547 345.35764539 C288.96905773 345.59096191 320.9111201 334.6715211 345.89819336 310.56616211 C359.6295576 297.01027088 370.16214356 283.63286357 378 266 C378.48210937 264.93394531 378.96421875 263.86789062 379.4609375 262.76953125 C384.47268182 250.78690619 387.47915153 236.99950975 388 224 C388.07734375 222.64068359 388.07734375 222.64068359 388.15625 221.25390625 C389.16484605 188.2644103 376.31422575 156.90721284 353.88842773 133.04736328 C352.59638417 131.69431607 351.29840518 130.34694369 350 129 C349.41992188 128.36835938 348.83984375 127.73671875 348.2421875 127.0859375 C329.69260188 107.4177839 301.43538263 91.0857859 274.1090641 89.81972885 C269.45140574 89.72927334 264.79422127 89.7522313 260.13598633 89.77294922 C258.32241925 89.77356285 256.5088517 89.77329326 254.69528484 89.7722187 C249.86637243 89.77176971 245.03756042 89.78330809 240.20867157 89.79743958 C235.66690273 89.80888292 231.12515752 89.80936871 226.58337402 89.81079102 C213.32640287 89.82125932 200.06945014 89.84918182 186.8125 89.875 C157.174375 89.91625 127.53625 89.9575 97 90 Z " fill="#5E6267" transform="translate(1113,192)"/>
<path d="M0 0 C0.93457031 0.46664063 1.86914062 0.93328125 2.83203125 1.4140625 C17.19916344 8.78071798 30.16757743 19.09209127 42 30 C42.5784668 30.53318848 43.15693359 31.06637695 43.75292969 31.61572266 C81.82383479 67.17726584 99.92234143 117.4679728 102.16639495 168.80673194 C102.40291725 177.76894569 102.38569548 186.73031049 102.34819686 195.69478643 C102.33498398 199.67594232 102.33964336 203.65708817 102.34190369 207.63825989 C102.34346083 214.50173699 102.33421733 221.36512715 102.31719017 228.22858238 C102.29258947 238.1514184 102.28497363 248.07421329 102.2812262 257.99707649 C102.27469434 274.10443862 102.25482287 290.21175464 102.22631836 306.3190918 C102.19869252 321.94636813 102.17750093 337.57363184 102.16479492 353.20092773 C102.16400675 354.16759476 102.16321858 355.13426178 102.16240653 356.13022175 C102.15849082 360.98072177 102.15469984 365.83122188 102.15097082 370.68172204 C102.11997683 410.78785569 102.06472955 450.89390383 102 491 C72.3 491 42.6 491 12 491 C12 467.9 12 444.8 12 421 C8.02671726 422.32442758 6.79548124 424.85643305 4.5625 428.1875 C-7.71164102 445.87636866 -22.62866981 461.29466196 -40 474 C-40.55284668 474.41314453 -41.10569336 474.82628906 -41.67529297 475.25195312 C-68.83396701 495.36004737 -103.71975964 507.02292158 -137.51171875 507.203125 C-138.39421295 507.21013931 -139.27670715 507.21715363 -140.1859436 507.22438049 C-143.01984817 507.24179764 -145.85354387 507.24823318 -148.6875 507.25 C-149.65497162 507.25067474 -150.62244324 507.25134949 -151.61923218 507.25204468 C-165.63326117 507.23649049 -179.23495251 506.85149023 -193 504 C-193.88236328 503.82839355 -194.76472656 503.65678711 -195.67382812 503.47998047 C-236.01090318 495.550046 -277.10335898 477.098872 -304 445 C-304.75023437 444.14921875 -305.50046875 443.2984375 -306.2734375 442.421875 C-335.91170439 408.20229872 -349.94202989 363.97840798 -346.7890625 318.99023438 C-343.2689674 277.5224474 -325.03605849 239.37797238 -293.51953125 211.83203125 C-248.32181344 173.93899511 -189.66261214 163.73089601 -132.125 163.8125 C-131.32629486 163.81310425 -130.52758972 163.8137085 -129.7046814 163.81433105 C-82.32574632 163.91073126 -36.42608836 171.04722327 5 195 C4.41501568 159.68439975 1.54189939 125.66812 -24.78125 99.125 C-53.1322973 71.74742058 -90.32234097 56.18999749 -129.7734375 56.8125 C-170.64044205 58.36416605 -206.31247825 72.97129163 -234.32519531 103.12744141 C-239.83486797 109.28767308 -244.8560259 115.83984223 -249 123 C-252.83059205 122.42388168 -255.49780958 121.33355597 -258.78125 119.296875 C-260.15083862 118.45503662 -260.15083862 118.45503662 -261.5480957 117.59619141 C-262.52222412 116.98694824 -263.49635254 116.37770508 -264.5 115.75 C-265.52246826 115.11884277 -266.54493652 114.48768555 -267.59838867 113.83740234 C-270.73651947 111.89838288 -273.86846313 109.94964554 -277 108 C-278.75602758 106.9132819 -280.51250991 105.82729814 -282.26953125 104.7421875 C-285.66347707 102.64516588 -289.05521766 100.54464746 -292.4453125 98.44140625 C-298.28264552 94.8220894 -304.12847633 91.21662391 -309.97714233 87.61566162 C-311.63321694 86.59592508 -313.2889051 85.57556104 -314.94458008 84.55517578 C-321.27140915 80.66105913 -327.61965917 76.80583291 -334 73 C-332.36555505 68.60242143 -330.13036416 65.4421124 -327.0625 61.9375 C-326.57668457 61.37385742 -326.09086914 60.81021484 -325.59033203 60.22949219 C-315.07199428 48.09529386 -304.32022576 36.24785422 -291.65625 26.30566406 C-290.48439907 25.38186413 -289.31826797 24.45078686 -288.15625 23.51464844 C-216.60773211 -34.0861673 -105.12509739 -43.98266441 0 0 Z M-229 287 C-239.58395266 300.271414 -245.99180239 314.95229497 -247 332 C-247.05285156 332.71929688 -247.10570312 333.43859375 -247.16015625 334.1796875 C-247.94891642 354.55027613 -240.39438157 372.98583275 -227 388 C-211.13963268 404.73987013 -187.26604209 416.02939569 -165 421 C-164.18321777 421.18328857 -163.36643555 421.36657715 -162.52490234 421.55541992 C-155.28388817 423.03233509 -148.25262292 423.34934338 -140.875 423.3125 C-139.09113892 423.30404053 -139.09113892 423.30404053 -137.27124023 423.29541016 C-127.86762296 423.16642729 -119.10385529 422.32138691 -110 420 C-109.24799316 419.81727539 -108.49598633 419.63455078 -107.72119141 419.44628906 C-88.3825613 414.63238114 -69.76598598 406.25988735 -54 394 C-53.195625 393.40316406 -52.39125 392.80632812 -51.5625 392.19140625 C-18.29736275 366.75014174 4.7236457 333.68142984 11 292 C11.1335791 291.24702637 11.2671582 290.49405273 11.40478516 289.71826172 C12.20998581 284.88166822 12.447143 280.78093169 11 276 C6.70623373 271.30890013 1.65507982 268.77318638 -4 266 C-5.6798887 265.12799166 -7.35957025 264.25558415 -9.0390625 263.3828125 C-74.93457815 229.9823656 -175.61070552 229.31896159 -229 287 Z " fill="#5E6267" transform="translate(1940,437)"/>
<path d="M0 0 C0.84769991 2.39504923 1.10221285 3.66733821 0.34631348 6.12748718 C-0.01740356 6.88938858 -0.38112061 7.65128998 -0.75585938 8.4362793 C-1.36391418 9.73684013 -1.36391418 9.73684013 -1.98425293 11.06367493 C-2.43288696 11.99527939 -2.881521 12.92688385 -3.34375 13.88671875 C-4.28021965 15.88647078 -5.21507438 17.88697974 -6.1484375 19.88818359 C-6.86628418 21.41786774 -6.86628418 21.41786774 -7.59863281 22.97845459 C-9.71542142 27.54254954 -11.72289415 32.1515481 -13.71875 36.76953125 C-14.10522202 37.66078705 -14.49169403 38.55204285 -14.88987732 39.4703064 C-15.68496602 41.30491561 -16.47930514 43.13984985 -17.2729187 44.97509766 C-19.428948 49.96052331 -21.59160356 54.94307405 -23.75390625 59.92578125 C-24.19219254 60.93605377 -24.63047882 61.94632629 -25.08204651 62.98721313 C-29.50313508 73.17166788 -33.9671421 83.33709838 -38.4375 93.5 C-44.03010706 106.21793146 -49.5939374 118.94734638 -55.1081543 131.69946289 C-59.47067123 141.78672172 -63.85675949 151.86358622 -68.25 161.9375 C-68.78670822 163.16826263 -68.78670822 163.16826263 -69.33425903 164.42388916 C-71.15949736 168.60933623 -72.98496471 172.79468336 -74.81054688 176.97998047 C-78.02220093 184.34326312 -81.23180347 191.70743996 -84.44152832 199.07156372 C-86.21093176 203.13108046 -87.98047296 207.19053714 -89.75 211.25 C-90.45833399 212.87499971 -91.16666732 214.49999971 -91.875 216.125 C-96.12499997 225.87499992 -96.12499997 225.87499992 -97.18751526 228.31253052 C-97.89580211 229.93742688 -98.60408458 231.56232516 -99.31236267 233.18722534 C-101.08387118 237.25132666 -102.85545599 241.31539468 -104.62719727 245.37939453 C-107.80670035 252.67270336 -110.98568773 259.96623441 -114.16177368 267.2610321 C-121.83024951 284.8737257 -129.5202832 302.47658787 -137.25 320.0625 C-142.9039563 332.92608078 -148.53045872 345.80058595 -154.10742188 358.69775391 C-158.47016919 368.78558837 -162.85651174 378.86301812 -167.25 388.9375 C-167.78670822 390.16826263 -167.78670822 390.16826263 -168.33425903 391.42388916 C-170.15949736 395.60933623 -171.98496471 399.79468336 -173.81054688 403.97998047 C-177.02220093 411.34326312 -180.23180347 418.70743996 -183.44152832 426.07156372 C-185.21093176 430.13108046 -186.98047296 434.19053714 -188.75 438.25 C-189.45833399 439.87499971 -190.16666732 441.49999971 -190.875 443.125 C-195.12500003 452.87500006 -195.12500003 452.87500006 -196.18751526 455.31253052 C-196.89580211 456.93742688 -197.60408458 458.56232516 -198.31236267 460.18722534 C-200.08387118 464.25132666 -201.85545599 468.31539468 -203.62719727 472.37939453 C-206.80670035 479.67270336 -209.98568773 486.96623441 -213.16177368 494.2610321 C-220.83024951 511.8737257 -228.5202832 529.47658787 -236.25 547.0625 C-241.9039563 559.92608078 -247.53045872 572.80058595 -253.10742188 585.69775391 C-257.47016919 595.78558837 -261.85651174 605.86301812 -266.25 615.9375 C-266.60780548 616.75800842 -266.96561096 617.57851685 -267.33425903 618.42388916 C-269.15949736 622.60933623 -270.98496471 626.79468336 -272.81054688 630.97998047 C-275.67032774 637.53653185 -278.52845196 644.09380511 -281.38647461 650.65112305 C-282.79064549 653.87276595 -284.19512035 657.09427606 -285.59985352 660.31567383 C-288.89307207 667.86834518 -292.18436106 675.42184039 -295.46908569 682.97821045 C-297.00502655 686.51126381 -298.54202597 690.04385621 -300.07910156 693.57641602 C-300.8050513 695.2456207 -301.53049373 696.91504614 -302.25537109 698.5847168 C-303.2665794 700.91382694 -304.27960649 703.24213885 -305.29296875 705.5703125 C-305.57984055 706.23237701 -305.86671234 706.89444153 -306.16227722 707.5765686 C-309.00665444 714.10247958 -312.01412768 720.53060998 -315 727 C-347.01 727 -379.02 727 -412 727 C-410.5899245 722.76977351 -409.18185922 719.04104738 -407.3046875 715.046875 C-406.76191162 713.88784668 -406.21913574 712.72881836 -405.65991211 711.53466797 C-405.0649992 710.27308472 -404.47002672 709.01152957 -403.875 707.75 C-403.25174848 706.42217198 -402.62878937 705.09420667 -402.00610352 703.76611328 C-400.34778325 700.23162687 -398.68523849 696.69914597 -397.0211792 693.1673584 C-396.00864548 691.01834923 -394.9966608 688.86908243 -393.98486328 686.71972656 C-391.28859318 680.99219721 -388.59231132 675.26467422 -385.89404297 669.53808594 C-381.73373349 660.70530578 -377.60290722 651.85962349 -373.5 643 C-368.3884271 631.96231162 -363.22222095 620.95129034 -358.03662109 609.94824219 C-353.33671533 599.97521681 -348.65579633 589.9936923 -344 580 C-339.00546243 569.27919778 -333.97938941 558.57361042 -328.9375 547.875 C-320.78913518 530.58302159 -320.78913518 530.58302159 -312.75756836 513.23657227 C-310.29723832 507.8839695 -307.80062902 502.55898811 -305.16508484 497.29064941 C-303.89769398 494.75134266 -302.65214017 492.20160533 -301.40805054 489.65081787 C-300.52524235 487.86360229 -299.61129474 486.09187423 -298.6965332 484.32080078 C-295.30040674 477.68626553 -295.30040674 477.68626553 -295.77734375 470.54296875 C-296.47924175 469.01018557 -297.22496072 467.49713033 -298 466 C-298.9105711 463.92840772 -299.81781309 461.85535056 -300.72265625 459.78125 C-301.53917592 457.99416443 -302.35590206 456.20716694 -303.17779541 454.42254639 C-304.75373681 450.99787732 -306.31223969 447.56528552 -307.87109375 444.1328125 C-308.20463867 443.39882233 -308.53818359 442.66483215 -308.88183594 441.90859985 C-312.87594469 433.09914709 -316.74879911 424.23679065 -320.625 415.375 C-327.01708088 400.77126513 -333.45502648 386.18883878 -339.9375 371.625 C-346.49811002 356.88332434 -353.04422023 342.13544665 -359.5625 327.375 C-359.9525119 326.4918512 -360.3425238 325.60870239 -360.74435425 324.6987915 C-362.71023897 320.24691718 -364.67575873 315.79488184 -366.64111328 311.34277344 C-370.59167202 302.39412058 -374.54611787 293.44718479 -378.5 284.5 C-380.07946586 280.92579838 -381.65889576 277.35158088 -383.23828125 273.77734375 C-383.62953186 272.89192398 -384.02078247 272.00650421 -384.42388916 271.09425354 C-386.8298512 265.64913113 -389.23497278 260.20363827 -391.63948059 254.75787354 C-393.65522012 250.19263112 -395.67128358 245.62753181 -397.6875 241.0625 C-398.08387665 240.16501038 -398.4802533 239.26752075 -398.88864136 238.34283447 C-404.58583024 225.44476313 -410.30672936 212.55743428 -416.04147339 199.67602539 C-421.31720955 187.82209287 -426.54238356 175.94649707 -431.75 164.0625 C-438.10333077 149.56428793 -444.50162292 135.08675773 -450.9375 120.625 C-458.27942992 104.12689277 -465.60194096 87.62044909 -472.89038086 71.09863281 C-473.66777545 69.33657507 -474.44520064 67.57453082 -475.22265625 65.8125 C-475.60810104 64.93889832 -475.99354584 64.06529663 -476.39067078 63.16522217 C-478.90752088 57.46447092 -481.43473589 51.76840855 -483.96824646 46.07504272 C-485.72493964 42.12672777 -487.47863325 38.17708368 -489.23214722 34.22735596 C-490.06718658 32.3487234 -490.90367785 30.47073543 -491.74172974 28.59344482 C-492.90450576 25.98843336 -494.06213142 23.38118748 -495.21875 20.7734375 C-495.5584935 20.01595215 -495.898237 19.2584668 -496.24827576 18.47802734 C-498.51234211 13.35527983 -500.21126383 8.3662085 -502 3 C-467.68 3 -433.36 3 -398 3 C-388.595 25.77 -388.595 25.77 -379 49 C-373.36456485 62.5345522 -373.36456485 62.5345522 -367.72265625 76.06640625 C-363.73696795 85.62112555 -359.77468564 95.18551652 -355.8125 104.75 C-349.56043255 119.84117867 -343.28627693 134.9230408 -337 150 C-330.81795774 164.82699199 -324.6478287 179.65878854 -318.5 194.5 C-312.3089765 209.44472927 -306.09824377 224.38115877 -299.875 239.3125 C-299.45012299 240.33191681 -299.02524597 241.35133362 -298.5874939 242.40164185 C-295.03557419 250.92338709 -291.48263146 259.44470567 -287.92919922 267.96582031 C-286.05664442 272.45624612 -284.18438158 276.94679352 -282.3125 281.4375 C-282.01669037 282.14713898 -281.72088074 282.85677795 -281.41610718 283.58792114 C-275.59956923 297.54375982 -269.80916468 311.51040354 -264.02099609 325.47802734 C-258.6967271 338.32540292 -253.35813748 351.16670576 -248 364 C-247.34 364 -246.68 364 -246 364 C-220.68458262 302.0270507 -220.68458262 302.0270507 -195.49108887 240.00448608 C-190.16301308 226.84770415 -184.803989 213.70365577 -179.4375 200.5625 C-179.02084076 199.54219696 -178.60418152 198.52189392 -178.17489624 197.47067261 C-177.75584015 196.44450836 -177.33678406 195.41834412 -176.9050293 194.36108398 C-170.49313569 178.65985298 -164.087041 162.9562701 -157.6875 147.25 C-157.22022491 146.10319763 -156.75294983 144.95639526 -156.27151489 143.77484131 C-150.33274532 129.19815441 -144.40694327 114.61631387 -138.50015259 100.02664185 C-132.19491146 84.45499639 -125.84484812 68.90169482 -119.48974609 53.3503418 C-112.63676751 36.57612883 -105.82003855 19.78778721 -99 3 C-66.33 3 -33.66 3 0 3 C0 2.01 0 1.02 0 0 Z " fill="#5E6267" transform="translate(2559,425)"/>
<path d="M0 0 C132.33 0 264.66 0 401 0 C407.23010963 49.84087701 410.36671411 99.97315568 404 150 C403.87271515 151.00274963 403.87271515 151.00274963 403.74285889 152.02575684 C397.48568722 200.7610902 383.59226237 247.86799169 362 292 C361.37424072 293.28245605 361.37424072 293.28245605 360.73583984 294.59082031 C350.96187045 314.39481069 339.11625221 333.12118215 325.31298828 350.35351562 C323.65120191 352.43739203 322.04655606 354.56277055 320.4375 356.6875 C313.14668059 365.99265338 305.27277652 374.82441732 297.25 383.5 C296.64865234 384.15814697 296.04730469 384.81629395 295.42773438 385.49438477 C291.31240165 389.89700369 286.93186695 393.54028406 282 397 C272.85072215 390.19413392 263.77652247 383.30357389 254.7878418 376.28686523 C247.60502949 370.68228731 240.37091532 365.14661528 233.12646484 359.62207031 C229.49888622 356.85494834 225.87437434 354.0838169 222.25 351.3125 C221.54125732 350.77061035 220.83251465 350.2287207 220.10229492 349.67041016 C212.69117805 344.00212358 205.29818007 338.31046697 197.90625 332.6171875 C191.77914093 327.9005268 185.64356812 323.19520689 179.5 318.5 C173.37648836 313.82012123 167.25845575 309.13341726 161.15625 304.42578125 C158.89155958 302.68522092 156.62148654 300.95375627 154.34375 299.23046875 C153.74272461 298.77373779 153.14169922 298.31700684 152.52246094 297.84643555 C151.36665341 296.96843575 150.20855055 296.09344695 149.04785156 295.22192383 C145.11244838 292.22489677 145.11244838 292.22489677 144 290 C144.76441406 289.50113281 145.52882813 289.00226563 146.31640625 288.48828125 C170.25810333 272.44071774 188.61060692 251.91386654 203 227 C203.96679688 225.34871094 203.96679688 225.34871094 204.953125 223.6640625 C214.85155296 206.26431047 220.93410666 187.38600256 225.47851562 167.97338867 C226 166 226 166 227 164 C152.09 164 77.18 164 0 164 C0 109.88 0 55.76 0 0 Z " fill="#4185F3" transform="translate(422,480)"/>
<path d="M0 0 C1.65 0 3.3 0 5 0 C5.05414063 1.07701172 5.05414063 1.07701172 5.109375 2.17578125 C6.35997225 6.14149095 9.01593917 7.82950879 12.25 10.1875 C13.19891113 10.90522583 13.19891113 10.90522583 14.16699219 11.63745117 C15.47581505 12.62657528 16.78868333 13.61036836 18.10546875 14.58886719 C20.84633806 16.63039098 23.54596756 18.72239329 26.25 20.8125 C27.31753873 21.63173148 28.38525335 22.45073379 29.453125 23.26953125 C33.64999063 26.4942756 37.82427945 29.7479532 42 33 C49.31276305 38.69381959 56.6469672 44.35828686 64 50 C72.1358412 56.24233341 80.24408184 62.51849483 88.33544922 68.81835938 C94.87075302 73.90460897 101.42979639 78.95892306 108 84 C112.33747783 87.3279881 116.67130901 90.66059734 121 94 C121.7513623 94.57927246 122.50272461 95.15854492 123.27685547 95.75537109 C125.72813363 97.64697429 128.1768384 99.54186555 130.625 101.4375 C131.40770264 102.04110352 132.19040527 102.64470703 132.99682617 103.26660156 C133.73263916 103.83733398 134.46845215 104.40806641 135.2265625 104.99609375 C135.88221191 105.50325928 136.53786133 106.0104248 137.21337891 106.53295898 C138.92108287 107.93519909 140.46795633 109.40966884 142 111 C141.77860352 111.7528125 141.55720703 112.505625 141.32910156 113.28125 C134.8560259 135.48235031 128.94084949 158.09864464 128.796875 181.3828125 C128.78628555 182.53543831 128.78628555 182.53543831 128.77548218 183.71134949 C128.56804365 212.96147159 131.20378234 240.7773756 141.33032227 268.49731445 C142 271 142 271 141 274 C139.11592251 275.61450036 137.24339427 277.09539841 135.25 278.5625 C134.05066171 279.46468486 132.85144613 280.36703287 131.65234375 281.26953125 C131.03987793 281.72666504 130.42741211 282.18379883 129.79638672 282.65478516 C127.11608157 284.66191772 124.46470735 286.70594211 121.8125 288.75 C121.29010742 289.15162354 120.76771484 289.55324707 120.22949219 289.96704102 C115.4722553 293.6266167 110.73580007 297.31274943 106 301 C98.68714576 306.69372134 91.35229969 312.35732018 84 318 C81.83289153 319.66609253 79.66642661 321.33302098 77.5 323 C74.30981395 325.45472115 71.11903483 327.90864417 67.92578125 330.359375 C60.81329582 335.8209071 53.72893394 341.31762131 46.65356445 346.82714844 C41.25913613 351.0259192 35.84734412 355.20076669 30.421875 359.359375 C27.77385763 361.39557608 25.14306225 363.45294336 22.515625 365.515625 C21.72736328 366.13308594 20.93910156 366.75054688 20.12695312 367.38671875 C18.59227709 368.58974335 17.05957682 369.79529465 15.52929688 371.00390625 C10.51332775 374.93180286 5.34797456 378.53843622 0 382 C-26.17049394 329.7641145 -44.28015149 270.20645157 -44.3359375 211.3671875 C-44.34240212 209.71696877 -44.3491328 208.06675107 -44.35610962 206.41653442 C-44.36797716 202.97606771 -44.37180207 199.53570052 -44.37060547 196.09521484 C-44.37044407 192.6399211 -44.38416638 189.18516409 -44.41162109 185.72998047 C-44.92490729 120.08692611 -28.49660101 58.9468697 0 0 Z " fill="#FABB04" transform="translate(44,364)"/>
</svg>
